Coordinates
version=1
nRows=14
nColumns=36
inDegrees=yes

Units are S.I. units (second, meters, Newtons, ...)
If the header above contains a line with 'inDegrees', this indicates whether rotational values are in degrees (yes) or radians (no).

endheader
time	pelvis_tilt	pelvis_list	pelvis_rotation	pelvis_tx	pelvis_ty	pelvis_tz	hip_flexion_r	hip_adduction_r	hip_rotation_r	knee_angle_r	knee_angle_r_beta	ankle_angle_r	subtalar_angle_r	mtp_angle_r	hip_flexion_l	hip_adduction_l	hip_rotation_l	knee_angle_l	knee_angle_l_beta	ankle_angle_l	subtalar_angle_l	mtp_angle_l	lumbar_extension	lumbar_bending	lumbar_rotation	arm_flex_r	arm_add_r	arm_rot_r	elbow_flex_r	pro_sup_r	arm_flex_l	arm_add_l	arm_rot_l	elbow_flex_l	pro_sup_l
      5.10000000	     -3.22273144	      2.54096950	     -0.06587138	      0.90682800	      0.92925669	      0.06662974	      8.49153799	     -0.50698908	     -2.58461367	     12.81260191	      0.22362209	     13.71210727	      2.87085714	     -7.49999987	      7.60646367	      2.03339157	     -3.36549869	     13.93979443	      0.24329531	      6.21129570	      5.36791389	     -7.49999987	     -0.00523624	     -3.72331004	     -2.60989439	      9.46561706	     -5.47132870	     24.72767558	    123.82240183	     76.66839527	     -2.57785145	    -13.84575316	     20.04747175	    134.00455246	     69.96258548
      5.11666670	     -2.67080841	      2.46278201	     -0.21402621	      0.90663700	      0.93201263	      0.06692970	      8.04505500	     -0.42902597	     -2.51874193	     13.20484369	      0.23046800	     13.96180115	      2.67957596	     -7.49999987	      6.85199594	      1.99221839	     -3.42423895	     13.87950758	      0.24224311	      6.53260995	      5.19157222	     -7.49999987	     -0.65599964	     -3.75204913	     -2.55457916	      8.95177566	     -5.50139498	     24.18577654	    123.29580619	     76.68049657	     -2.59791555	    -14.48359328	     20.40753819	    133.42634676	     69.82664280
      5.13333330	     -2.50078946	      2.36594345	     -0.23435953	      0.90753849	      0.93148099	      0.06526204	      8.01255615	     -0.37018066	     -2.58915803	     13.55567593	      0.23659118	     14.37713325	      3.00034009	     -7.49999987	      6.52094682	      1.98718811	     -3.29231154	     13.88849877	      0.24240003	      6.83037321	      4.88267877	     -7.49999987	     -0.77722266	     -3.80547667	     -1.51876884	      7.27619334	     -5.56583082	     22.29532899	    123.35943439	     81.87052424	     -2.65006300	    -14.59787710	     21.58854375	    132.10656207	     71.97112852
      5.15000000	     -2.27385730	      2.26109473	     -0.24279492	      0.90615763	      0.93077501	      0.06565732	      8.02765504	     -0.25835035	     -2.43356111	     13.97087619	      0.24383779	     14.61597040	      2.77426619	     -7.49999987	      6.31749640	      1.91925726	     -3.15659355	     14.00552815	      0.24444258	      6.97060600	      4.68479799	     -7.49999987	     -1.03518911	     -3.76922479	     -1.66213831	      6.58753754	     -5.68330909	     21.94232982	    122.87152740	     80.60610879	     -3.69040395	    -14.68539957	     21.52860060	    131.61903510	     71.01232074
      5.16666670	     -2.04129424	      2.20790650	     -0.24454560	      0.90596661	      0.93278932	      0.06419739	      7.98851185	     -0.27629449	     -2.41332247	     14.31444320	      0.24983416	     14.63475940	      2.91765051	     -7.49999987	      6.17840011	      1.94442589	     -3.04562197	     14.17928852	      0.24747527	      6.93189534	      4.54602049	     -7.49999987	     -1.31248835	     -3.74550747	     -1.62640588	      5.92811322	     -6.00696964	     21.52170270	    122.12350858	     79.68787442	     -4.44180991	    -14.77081288	     21.61610838	    130.94093362	     70.35082150
      5.18333330	     -1.88030013	      2.14186517	     -0.33929406	      0.90578110	      0.92916536	      0.06380263	      8.18972483	     -0.32107975	     -2.47186908	     14.92977650	      0.26057376	     14.83750456	      3.22154599	     -7.49999987	      6.18580896	      1.86647901	     -3.29847352	     14.51511833	      0.25333661	      7.15975778	      4.87661145	     -7.49999987	     -1.41919333	     -3.72022438	     -1.30334479	      5.24824054	     -6.63940893	     21.01302376	    121.48853301	     79.90270078	     -5.00450667	    -14.67958125	     22.02055110	    130.21754916	     70.68246439
      5.20000000	     -1.78240418	      2.15399131	     -0.37208337	      0.90469962	      0.92982826	      0.06487418	      8.36976249	     -0.36390020	     -2.38108112	     15.35951700	      0.26807414	     15.04482093	      3.04077850	     -7.49999987	      6.38080840	      1.89964433	     -2.94536143	     14.97576553	      0.26137642	      7.48963029	      4.50976791	     -7.49999987	     -1.65052077	     -3.87960017	     -1.39919016	      4.84102640	     -6.86269897	     20.59018996	    121.04870359	     79.20583485	     -5.46979030	    -14.95388198	     22.13347556	    130.15558800	     70.16490411
      5.21666670	     -1.60659124	      2.15794934	     -0.40272839	      0.90341408	      0.93619321	      0.06582257	      8.38018678	     -0.38105113	     -2.38696066	     15.60142505	      0.27229624	     14.75391884	      3.14479595	     -7.49999987	      6.48362521	      1.88966831	     -2.96853175	     15.32898810	      0.26754131	      7.25845000	      4.50889387	     -7.49999987	     -2.03569135	     -4.00601352	     -1.38214279	      4.29540419	     -7.17295595	     20.51017910	    120.67352655	     79.24327305	     -6.06247352	    -15.01156462	     22.29419757	    129.87263843	     70.17289723
      5.23333330	     -1.64857773	      2.11959750	     -0.32838067	      0.90144664	      0.93124806	      0.06606475	      8.63091734	     -0.32735842	     -2.49923446	     15.80405021	      0.27583271	     15.17828963	      3.57598670	     -7.49999987	      6.91632986	      1.76004398	     -3.24370717	     15.84463686	      0.27654108	      7.57134721	      4.45910404	     -7.49999987	     -2.10048510	     -4.19049658	     -0.92666355	      3.35075788	     -7.31671677	     19.11235670	    120.62291846	     82.70759885	     -5.82297306	    -15.06856590	     23.48354677	    129.58012580	     71.16972684
      5.25000000	     -1.66300777	      2.16080883	     -0.34075987	      0.90343989	      0.92558994	      0.06359409	      8.83094262	     -0.41944872	     -2.44370421	     16.21511090	      0.28300707	     15.12444837	      2.86426737	     -7.49999987	      7.19521868	      1.82909649	     -3.10692755	     16.20607964	      0.28284945	      7.54028633	      3.94369091	     -7.49999987	     -2.01428891	     -4.38793461	     -0.97305654	      3.15924702	     -7.54364675	     19.00587391	    120.34376068	     80.78466130	     -6.20698975	    -15.18067669	     23.75201183	    129.76856846	     70.25696974
      5.26666670	     -1.55435559	      2.06905697	     -0.21584704	      0.90271658	      0.93267649	      0.06623752	      8.76710156	     -0.32905634	     -2.85069447	     16.18688013	      0.28251435	     15.49086458	      3.30340053	     -7.49999987	      7.29388242	      1.58678460	     -3.61910005	     16.52062912	      0.28833937	      8.06631548	      4.63883801	     -7.49999987	     -2.24813509	     -4.38662165	     -0.94773329	      2.70110638	     -7.39871472	     18.68240188	    120.40105467	     82.85150463	     -6.40300278	    -15.13688538	     23.96543293	    129.77744896	     70.47526664
      5.28333330	     -1.48815371	      1.96389503	      0.04473482	      0.90259722	      0.93342653	      0.06637175	      8.56173557	     -0.20438520	     -3.10076283	     15.93900320	      0.27818809	     15.28155210	      3.18695545	     -7.49999987	      7.30974371	      1.43116301	     -3.70126925	     16.60750516	      0.28985565	      7.89320967	      4.66274446	     -7.49999987	     -2.29962535	     -4.39505191	     -1.09420835	      2.44328011	     -7.30737268	     18.64868620	    120.20376956	     82.32186183	     -6.66624049	    -14.98994664	     24.14073594	    129.73993394	     70.08510480
      5.30000000	     -1.44941949	      1.88097364	      0.26355819	      0.90171389	      0.93072828	      0.06544994	      8.45515195	     -0.09451603	     -3.14290488	     15.78591116	      0.27551613	     15.18711453	      3.01853473	     -7.49999987	      7.34952614	      1.32087673	     -3.85549229	     16.67452530	      0.29102537	      7.89211045	      4.66558112	     -7.49999987	     -2.32907094	     -4.40979363	     -1.10093751	      2.12456943	     -7.27058339	     18.63582972	    120.14034256	     81.83500000	     -6.87147614	    -14.67453653	     24.51700965	    129.56437141	     69.90855536
      5.31666670	     -1.36993255	      1.81609279	      0.41498772	      0.90163332	      0.92991201	      0.06469916	      8.27169225	     -0.02380550	     -3.27365051	     15.55360242	      0.27146157	     14.95181063	      2.76682974	     -7.49999987	      7.34740757	      1.26240377	     -3.87140345	     16.69879614	      0.29144897	      7.99562616	      4.86258601	     -7.49999987	     -2.39569640	     -4.44159059	     -1.00859920	      2.05316996	     -7.25969489	     18.57947661	    120.19430873	     81.53979876	     -7.17267862	    -14.43184239	     24.70410950	    129.48276815	     69.73541515
